<svg xmlns="http://www.w3.org/2000/svg" version="1.1" xmlns:xlink="http://www.w3.org/1999/xlink" width="512" height="512" x="0" y="0" viewBox="0 0 682.667 682.667" style="enable-background:new 0 0 512 512" xml:space="preserve" class=""><g><defs><clipPath id="a" clipPathUnits="userSpaceOnUse"><path d="M0 512h512V0H0Z" fill="#000000" opacity="1" data-original="#000000" class=""></path></clipPath></defs><g clip-path="url(#a)" transform="matrix(1.33333 0 0 -1.33333 0 682.667)"><path d="M0 0v-241.26C0-254.371-10.628-265-23.74-265h-94.46c-13.111 0-23.74 10.629-23.74 23.74V0a66.117 66.117 0 0 0 21.79 49.06 66.096 66.096 0 0 1 21.8 49.06v103.73a3.59 3.59 0 0 0 3.59 3.59h47.571a3.59 3.59 0 0 0 3.589-3.59V98.12c0-9.35 1.98-18.48 5.7-26.84a66.075 66.075 0 0 1 16.11-22.22A66.139 66.139 0 0 0 0 0" style="fill-opacity:1;fill-rule:nonzero;stroke:none" transform="translate(319.47 272.5)" fill="#fdb541" data-original="#fdb541"></path><path d="M0 0a66.075 66.075 0 0 0-16.11 22.22 65.996 65.996 0 0 0-5.7 26.84v103.73a3.59 3.59 0 0 1-3.59 3.59h-20.886a3.59 3.59 0 0 0 3.59-3.59V49.06c0-9.35 1.98-18.48 5.7-26.84A66.075 66.075 0 0 1-20.886 0 66.139 66.139 0 0 0 .904-49.06v-241.26c0-13.111-10.629-23.74-23.74-23.74H-1.95c13.111 0 23.74 10.629 23.74 23.74v241.26C21.79-30.36 13.87-12.54 0 0" style="fill-opacity:1;fill-rule:nonzero;stroke:none" transform="translate(297.68 321.56)" fill="#fea713" data-original="#fea713"></path><path d="M0 0h-37.047a3.59 3.59 0 0 1-3.59-3.59v-22.971H3.59V-3.59A3.59 3.59 0 0 1 0 0" style="fill-opacity:1;fill-rule:nonzero;stroke:none" transform="translate(267.021 504.5)" fill="#d8ab8c" data-original="#d8ab8c"></path><path d="M0 0h-20.886a3.59 3.59 0 0 0 3.59-3.59v-22.971H3.59V-3.59A3.59 3.59 0 0 1 0 0" style="fill-opacity:1;fill-rule:nonzero;stroke:none" transform="translate(267.021 504.5)" fill="#c38778" data-original="#c38778"></path><path d="M0 0v-75.869l-54.754-9.454V0a3.59 3.59 0 0 0 3.59 3.59H-3.59A3.59 3.59 0 0 0 0 0" style="fill-opacity:1;fill-rule:nonzero;stroke:none" transform="translate(275.875 474.35)" fill="#685e68" data-original="#685e68"></path><path d="M0 0h-20.886a3.59 3.59 0 0 0 3.59-3.59v-79.475L3.59-79.459V-3.59A3.59 3.59 0 0 1 0 0" style="fill-opacity:1;fill-rule:nonzero;stroke:none" transform="translate(272.285 477.939)" fill="#554e56" data-original="#554e56"></path><path d="M0 0v-163.93c0-8.57-6.95-15.52-15.52-15.52h-59.82V15.521h59.82C-6.95 15.521 0 8.57 0 0" style="fill-opacity:1;fill-rule:nonzero;stroke:none" transform="translate(252.87 242.8)" fill="#fee45a" data-original="#fee45a"></path><path d="M0 0h-20.886c8.57 0 15.52-6.95 15.52-15.521V-179.45c0-8.571-6.95-15.52-15.52-15.52H0c8.57 0 15.52 6.949 15.52 15.52v163.929C15.52-6.95 8.57 0 0 0" style="fill-opacity:1;fill-rule:nonzero;stroke:none" transform="translate(237.35 258.32)" fill="#fddf30" data-original="#fddf30"></path><path d="M0 0v-215.167c0-13.112-10.629-23.741-23.74-23.741H-133.2c-13.112 0-23.74 10.629-23.74 23.741V0a66.117 66.117 0 0 0 21.79 49.06 66.096 66.096 0 0 1 21.8 49.06v122.675c0 5.93 4.807 10.737 10.737 10.737h48.276c5.929 0 10.737-4.807 10.737-10.737V98.12c0-9.35 1.98-18.48 5.7-26.84a66.075 66.075 0 0 1 16.11-22.22A66.139 66.139 0 0 0 0 0" style="fill-opacity:1;fill-rule:nonzero;stroke:none" transform="translate(476.41 246.408)" fill="#d8ab8c" data-original="#d8ab8c"></path><path d="M0 0a66.075 66.075 0 0 0-16.11 22.22 65.996 65.996 0 0 0-5.7 26.84v122.675c0 5.93-4.807 10.737-10.737 10.737h-20.887c5.931 0 10.738-4.807 10.738-10.737V49.06c0-9.35 1.98-18.48 5.7-26.84A66.075 66.075 0 0 1-20.886 0 66.142 66.142 0 0 0 .904-49.06v-215.168c0-13.111-10.629-23.74-23.74-23.74H-1.95c13.111 0 23.74 10.629 23.74 23.74V-49.06C21.79-30.36 13.87-12.54 0 0" style="fill-opacity:1;fill-rule:nonzero;stroke:none" transform="translate(454.62 295.468)" fill="#c38778" data-original="#c38778"></path><path d="M0 0v-5.95l-70.925-21.539a25.98 25.98 0 0 0-15.09 0L-156.94-5.95V0a66.117 66.117 0 0 0 21.79 49.06 66.096 66.096 0 0 1 21.8 49.06v88.952h69.75V98.12c0-9.35 1.98-18.48 5.7-26.84a66.075 66.075 0 0 1 16.11-22.22A66.139 66.139 0 0 0 0 0" style="fill-opacity:1;fill-rule:nonzero;stroke:none" transform="translate(476.41 246.408)" fill="#ecf4ff" data-original="#ecf4ff" class=""></path><path d="M0 0a66.075 66.075 0 0 0-16.11 22.22 65.996 65.996 0 0 0-5.7 26.84v88.952h-20.886V49.06c0-9.35 1.98-18.48 5.7-26.84A66.075 66.075 0 0 1-20.886 0 66.142 66.142 0 0 0 .904-49.06v-12.293L21.79-55.01v5.95C21.79-30.36 13.87-12.54 0 0" style="fill-opacity:1;fill-rule:nonzero;stroke:none" transform="translate(454.62 295.468)" fill="#ddeafb" data-original="#ddeafb" class=""></path><path d="M0 0c0-32.682-14.55-59.176-32.498-59.176-17.948 0-32.498 26.494-32.498 59.176s14.55 59.175 32.498 59.175C-14.55 59.175 0 32.682 0 0" style="fill-opacity:1;fill-rule:nonzero;stroke:none" transform="translate(430.438 117.438)" fill="#ecf4ff" data-original="#ecf4ff" class=""></path><path d="M0 0c-3.655 0-7.165-1.115-10.443-3.141C2.38-11.063 11.612-33.148 11.612-59.175c0-26.027-9.232-48.114-22.055-56.035 3.278-2.026 6.788-3.141 10.443-3.141 17.948 0 32.498 26.494 32.498 59.176C32.498-26.494 17.948 0 0 0" style="fill-opacity:1;fill-rule:nonzero;stroke:none" transform="translate(397.94 176.613)" fill="#ddeafb" data-original="#ddeafb" class=""></path><path d="M0 0v-291.832c0-13.111-10.628-23.74-23.74-23.74h-94.46c-13.111 0-23.74 10.629-23.74 23.74V0a66.117 66.117 0 0 0 21.79 49.06 66.096 66.096 0 0 1 21.8 49.06v74.167a3.59 3.59 0 0 0 3.59 3.59h47.571a3.59 3.59 0 0 0 3.589-3.59V98.12c0-9.35 1.98-18.48 5.7-26.84a66.075 66.075 0 0 1 16.11-22.22A66.139 66.139 0 0 0 0 0" style="fill-opacity:1;fill-rule:nonzero;stroke:none" transform="translate(177.53 323.072)" fill="#02905d" data-original="#02905d"></path><path d="M0 0a66.075 66.075 0 0 0-16.11 22.22 65.996 65.996 0 0 0-5.7 26.84v74.167a3.59 3.59 0 0 1-3.59 3.59h-20.886a3.59 3.59 0 0 0 3.59-3.59V49.06c0-9.35 1.98-18.48 5.7-26.84A66.075 66.075 0 0 1-20.886 0 66.139 66.139 0 0 0 .904-49.06v-291.832c0-13.111-10.629-23.74-23.74-23.74H-1.95c13.111 0 23.74 10.629 23.74 23.74V-49.06C21.79-30.36 13.87-12.54 0 0" style="fill-opacity:1;fill-rule:nonzero;stroke:none" transform="translate(155.74 372.132)" fill="#017b4e" data-original="#017b4e"></path><path d="M0 0h-51.455c-8.859 0-16.042 7.182-16.042 16.042v1.527c0 8.859 7.183 16.041 16.042 16.041H0c8.859 0 16.042-7.182 16.042-16.041v-1.527C16.042 7.182 8.859 0 0 0" style="fill-opacity:1;fill-rule:nonzero;stroke:none" transform="translate(132.288 439.291)" fill="#fb5858" data-original="#fb5858"></path><path d="M0 0h-19.335c8.859 0 16.042-7.182 16.042-16.042v-1.527c0-8.859-7.183-16.041-16.042-16.041H0c8.859 0 16.042 7.182 16.042 16.041v1.527C16.042-7.182 8.859 0 0 0" style="fill-opacity:1;fill-rule:nonzero;stroke:none" transform="translate(132.288 472.902)" fill="#f44545" data-original="#f44545"></path><path d="m0 0-141.94-32.268v170.55L0 170.551Z" style="fill-opacity:1;fill-rule:nonzero;stroke:none" transform="translate(177.53 125.838)" fill="#fb5858" data-original="#fb5858"></path><path d="M0 0v-170.551l20.886 4.749V4.749Z" style="fill-opacity:1;fill-rule:nonzero;stroke:none" transform="translate(156.644 291.64)" fill="#f44545" data-original="#f44545"></path><path d="M0 0h-109.46c-8.955 0-16.24 7.285-16.24 16.24v199.102l61.246-18.599c5.072-1.427 11.515-2.242 19.448 0l61.246 18.599V16.24C16.24 7.285 8.955 0 0 0m-156.94 0h-94.46c-8.955 0-16.24 7.285-16.24 16.24v24.61h52.32c12.694 0 23.02 10.327 23.02 23.02v105.316a7.5 7.5 0 0 1-15 0V63.87c0-4.422-3.597-8.02-8.02-8.02h-52.32v179.97h52.32c4.423 0 8.02-3.598 8.02-8.02v-22.365a7.5 7.5 0 0 1 15 0V227.8c0 12.693-10.326 23.02-23.02 23.02h-52.32c-1.286 17.856 4.922 37.422 19.315 50.173 15.428 13.926 24.275 33.837 24.275 54.627v12.09l39.75 6.863V355.62c-.142-19.498 8.708-40.846 24.28-54.623 12.278-11.101 19.32-26.955 19.32-43.497V16.24c0-8.955-7.285-16.24-16.24-16.24m-252.64 87.967v155.167l126.94 28.859V116.825Zm5.045 243.901a58.2 58.2 0 0 0 14.271 19.695c15.427 13.927 24.274 33.837 24.274 54.627v10.602h39.75V406.19c.065-51.125 45.74-57.793 43.6-98.12v-20.695l-126.94-28.858c.923 17.44-3.233 57.415 5.045 73.351m78.295 133.534h-39.75v11.048h39.75zm-45.597-33.61c-10.328-.08-12.009 17.763 0 18.61h51.455c4.71 0 8.541-3.832 8.541-8.542.591-4.212-2.769-9.787-8.541-10.068zm182.278 38.648h-29.227V482h29.227zm-34.491-15.001h39.75v-65.644l-39.75-6.863zm145.177.001h48.276a3.24 3.24 0 0 0 3.237-3.237V425.98h-54.75v26.223a3.24 3.24 0 0 0 3.237 3.237M6.974 286.037c-11.517 10.292-19.349 26.428-19.334 43.49v14.713a7.5 7.5 0 0 1-15 0v-14.713c-.023-19.671 8.42-40.456 24.28-54.623 12.018-10.986 19.282-26.593 19.32-43.886l-65.604-19.923a18.424 18.424 0 0 0-10.732 0l-65.604 19.923c-.065 15.237 6.232 32.287 19.315 43.882 15.075 13.565 24.304 33.908 24.275 54.627v81.453h54.75v-31.074a7.5 7.5 0 0 1 15 0v72.297c0 10.056-8.181 18.237-18.237 18.237h-48.276c-10.056 0-18.237-8.181-18.237-18.237V329.527a58.685 58.685 0 0 0-19.328-43.494 73.422 73.422 0 0 1-11.041-12.548c-3.295 14.766-11.086 28.336-22.487 38.644-11.528 10.345-19.384 26.516-19.334 43.491l.005 103.729c0 3.976-2.111 7.461-5.264 9.418v17.143c0 6.115-4.975 11.09-11.09 11.09h-37.047c-6.115 0-11.09-4.975-11.09-11.09v-17.142c-3.153-1.957-5.264-5.442-5.264-9.418V355.62a58.686 58.686 0 0 0-19.328-43.495 73.593 73.593 0 0 1-9.262-10.107c2.805 57.443-45.763 62.34-43.6 104.172v12.45c8.453 3.575 14.399 11.953 14.399 21.693.705 9.289-5.547 19.626-14.399 23.221v16.806c0 6.115-4.975 11.09-11.09 11.09h-47.57c-6.115 0-11.09-4.975-11.09-11.09v-16.81c-8.301-3.366-14.981-13.06-14.389-23.217 0-9.737 5.942-18.111 14.389-21.689V406.19a58.69 58.69 0 0 0-19.328-43.495c-14.712-13.162-24.354-33.597-24.262-54.625V78.57c.04-4.231 3.902-8.476 9.163-7.313l132.777 30.185V16.24c0-8.955-7.285-16.24-16.24-16.24h-94.46c-8.955 0-16.24 7.285-16.24 16.24v28.022a7.5 7.5 0 0 1-15 0V16.24c0-17.226 14.014-31.24 31.24-31.24h94.46c9.494 0 18.005 4.262 23.74 10.967C-269.406-10.738-260.894-15-251.4-15h94.46c9.494 0 18.005 4.262 23.74 10.967C-127.466-10.738-118.954-15-109.46-15H0C17.226-15 31.24-.986 31.24 16.24v215.168c0 20.774-8.842 40.683-24.266 54.629" style="fill-opacity:1;fill-rule:nonzero;stroke:none" transform="translate(452.67 15)" fill="#000000" data-original="#000000" class=""></path><path d="M0 0c-11.824 0-24.998 21.223-24.998 51.676 0 30.453 13.174 51.675 24.998 51.675 11.824 0 24.998-21.222 24.998-51.675C24.998 21.223 11.824 0 0 0m0 118.351c-22.429 0-39.998-29.287-39.998-66.675S-22.429-15 0-15s39.998 29.288 39.998 66.676c0 37.388-17.569 66.675-39.998 66.675" style="fill-opacity:1;fill-rule:nonzero;stroke:none" transform="translate(397.94 65.762)" fill="#000000" data-original="#000000" class=""></path><path d="M0 0a7.5 7.5 0 0 1 0-15h33.877a7.5 7.5 0 0 1 0 15z" style="fill-opacity:1;fill-rule:nonzero;stroke:none" transform="translate(381.002 274.05)" fill="#000000" data-original="#000000" class=""></path><path d="M0 0a7.5 7.5 0 0 1-7.5-7.5c0-12.731-10.357-23.089-23.089-23.089-12.731 0-23.089 10.358-23.089 23.089a7.5 7.5 0 0 1-15 0c0-21.002 17.087-38.089 38.089-38.089C-9.586-45.589 7.5-28.502 7.5-7.5A7.5 7.5 0 0 1 0 0" style="fill-opacity:1;fill-rule:nonzero;stroke:none" transform="translate(138.149 180.832)" fill="#000000" data-original="#000000" class=""></path><path d="M0 0c-21.002 0-38.089-17.086-38.089-38.089a7.5 7.5 0 0 1 15 0C-23.089-25.357-12.731-15 0-15c12.731 0 23.089-10.357 23.089-23.089a7.5 7.5 0 0 1 15 0C38.089-17.086 21.002 0 0 0" style="fill-opacity:1;fill-rule:nonzero;stroke:none" transform="translate(107.56 254.716)" fill="#000000" data-original="#000000" class=""></path></g></g></svg>