<svg xmlns="http://www.w3.org/2000/svg" version="1.1" xmlns:xlink="http://www.w3.org/1999/xlink" width="512" height="512" x="0" y="0" viewBox="0 0 682.667 682.667" style="enable-background:new 0 0 512 512" xml:space="preserve" class=""><g><defs><clipPath id="a" clipPathUnits="userSpaceOnUse"><path d="M0 512h512V0H0Z" fill="#000000" opacity="1" data-original="#000000"></path></clipPath></defs><g clip-path="url(#a)" transform="matrix(1.33333 0 0 -1.33333 0 682.667)"><path d="M0 0h-236.22a39.607 39.607 0 0 1-1.89-12.109V-292h240v279.891C1.89-7.98 1.25-3.891 0 0" style="fill-opacity:1;fill-rule:nonzero;stroke:none" transform="translate(374.11 362)" fill="#ff641a" data-original="#ff641a"></path><path d="M0 0v-132c0-11.05-8.95-20-20-20h-120V20h120C-8.95 20 0 11.05 0 0" style="fill-opacity:1;fill-rule:nonzero;stroke:none" transform="translate(276 282)" fill="#ececf1" data-original="#ececf1"></path><path d="M0 0v-3.43c0-10.61-4.21-20.78-11.72-28.29l-22.42-22.42A20.006 20.006 0 0 0-48.28-60h-143.44c-5.3 0-10.39 2.11-14.14 5.86l-22.42 22.42A39.994 39.994 0 0 0-240-3.43V0z" style="fill-opacity:1;fill-rule:nonzero;stroke:none" transform="translate(376 70)" fill="#ececf1" data-original="#ececf1"></path><path d="M0 0h-236.22c1.12 3.55 2.74 6.95 4.83 10.08L-198.11 60h160l33.28-49.92C-2.74 6.95-1.12 3.55 0 0" style="fill-opacity:1;fill-rule:nonzero;stroke:none" transform="translate(374.11 362)" fill="#ececf1" data-original="#ececf1"></path><path d="M0 0c5.52 0 10-4.48 10-10S5.52-20 0-20s-10 4.48-10 10S-5.52 0 0 0" style="fill-opacity:1;fill-rule:nonzero;stroke:none" transform="translate(336 312)" fill="#000000" data-original="#000000"></path><path d="m0 0-33.28-49.92A39.625 39.625 0 0 1-38.11-60 39.603 39.603 0 0 1-40-72.11v-283.32c0-10.61 4.21-20.78 11.72-28.29l22.42-22.42c3.75-3.75 8.84-5.86 14.14-5.86h143.44c5.3 0 10.39 2.11 14.14 5.86l22.42 22.42A39.994 39.994 0 0 1 200-355.43v283.32c0 4.13-.64 8.22-1.89 12.11a39.625 39.625 0 0 1-4.83 10.08L160 0" style="stroke-width:20;stroke-linecap:round;stroke-linejoin:round;stroke-miterlimit:10;stroke-dasharray:none;stroke-opacity:1" transform="translate(176 422)" fill="none" stroke="#000000" stroke-width="20" stroke-linecap="round" stroke-linejoin="round" stroke-miterlimit="10" stroke-dasharray="none" stroke-opacity="" data-original="#000000" class=""></path><path d="M0 0h240" style="stroke-width:20;stroke-linecap:round;stroke-linejoin:round;stroke-miterlimit:10;stroke-dasharray:none;stroke-opacity:1" transform="translate(136 422)" fill="none" stroke="#000000" stroke-width="20" stroke-linecap="round" stroke-linejoin="round" stroke-miterlimit="10" stroke-dasharray="none" stroke-opacity="" data-original="#000000" class=""></path><path d="m0 0-6.28 50.23C-8.25 66.04 4.07 80 20 80c14.8 0 26.49-12.05 26.49-26.44 0-1.1-.07-2.21-.21-3.33L40 0" style="stroke-width:20;stroke-linecap:round;stroke-linejoin:round;stroke-miterlimit:10;stroke-dasharray:none;stroke-opacity:1" transform="translate(186 422)" fill="none" stroke="#000000" stroke-width="20" stroke-linecap="round" stroke-linejoin="round" stroke-miterlimit="10" stroke-dasharray="none" stroke-opacity="" data-original="#000000" class=""></path><path d="M0 0h240" style="stroke-width:20;stroke-linecap:round;stroke-linejoin:round;stroke-miterlimit:10;stroke-dasharray:none;stroke-opacity:1" transform="translate(136 70)" fill="none" stroke="#000000" stroke-width="20" stroke-linecap="round" stroke-linejoin="round" stroke-miterlimit="10" stroke-dasharray="none" stroke-opacity="" data-original="#000000" class=""></path><path d="M0 0h120c11.05 0 20-8.95 20-20v-132c0-11.05-8.95-20-20-20H0" style="stroke-width:20;stroke-linecap:round;stroke-linejoin:round;stroke-miterlimit:10;stroke-dasharray:none;stroke-opacity:1" transform="translate(136 302)" fill="none" stroke="#000000" stroke-width="20" stroke-linecap="round" stroke-linejoin="round" stroke-miterlimit="10" stroke-dasharray="none" stroke-opacity="" data-original="#000000" class=""></path><path d="M0 0H236.24" style="stroke-width:20;stroke-linecap:round;stroke-linejoin:round;stroke-miterlimit:10;stroke-dasharray:none;stroke-opacity:1" transform="translate(137.88 362)" fill="none" stroke="#000000" stroke-width="20" stroke-linecap="round" stroke-linejoin="round" stroke-miterlimit="10" stroke-dasharray="none" stroke-opacity="" data-original="#000000" class=""></path><path d="M0 0v-132" style="stroke-width:20;stroke-linecap:round;stroke-linejoin:round;stroke-miterlimit:10;stroke-dasharray:none;stroke-opacity:1" transform="translate(336 262)" fill="none" stroke="#000000" stroke-width="20" stroke-linecap="round" stroke-linejoin="round" stroke-miterlimit="10" stroke-dasharray="none" stroke-opacity="" data-original="#000000" class=""></path></g></g></svg>