<svg xmlns="http://www.w3.org/2000/svg" version="1.1" xmlns:xlink="http://www.w3.org/1999/xlink" width="512" height="512" x="0" y="0" viewBox="0 0 512 512" style="enable-background:new 0 0 512 512" xml:space="preserve" class=""><g><g data-name="Filled outline"><path d="M327.311 481.2A23.885 23.885 0 0 0 344 488h14.627a16 16 0 0 1-11.314-4.687 16 16 0 0 0-20.002-2.113Z" style="" fill="#48add9" data-original="#48add9"></path><path d="M442.53 296.41a49.3 49.3 0 0 0 0 31.18l2.94 8.82A49.186 49.186 0 0 1 448 352v112a24.006 24.006 0 0 1-24 24h-17.37a15.927 15.927 0 0 1-6.13-1.22 16.279 16.279 0 0 1-4.48-2.82c-.25-.21-.49-.43-.71-.65s-.45-.44-.69-.65c-.4-.35-.81-.68-1.24-.99-.22-.17-.45-.32-.68-.48a16.03 16.03 0 0 0-20.01 2.12 16.008 16.008 0 0 1-11.32 4.69H344a24.006 24.006 0 0 1-24-24V352a49.186 49.186 0 0 1 2.53-15.59l2.94-8.82a49.3 49.3 0 0 0 0-31.18l-2.94-8.82A49.186 49.186 0 0 1 320 272v-33.24a96.028 96.028 0 0 1 17.88-55.79L360 152v-40h48v40l22.12 30.97A95.934 95.934 0 0 1 448 238.76V272a49.186 49.186 0 0 1-2.53 15.59l-.14.41Z" style="" fill="#348fd9" data-original="#348fd9"></path><path d="M448 238.76V272a49.186 49.186 0 0 1-2.53 15.59l-.14.41-2.8 8.41a49.3 49.3 0 0 0 0 31.18l2.94 8.82A49.186 49.186 0 0 1 448 352v112a24.006 24.006 0 0 1-24 24h-16a20.08 20.08 0 0 1-11.98-4.04c-.25-.21-.49-.43-.71-.65s-.45-.44-.69-.65c-.4-.35-.81-.68-1.24-.99-.23-.16-.46-.32-.69-.47l.01-.01A23.888 23.888 0 0 0 400 464V352a49.186 49.186 0 0 0-2.53-15.59l-2.94-8.82a49.3 49.3 0 0 1 0-31.18l2.8-8.41.14-.41A49.186 49.186 0 0 0 400 272v-33.24a95.581 95.581 0 0 0-1.14-14.76 95.927 95.927 0 0 0-16.74-41.03L360 152v-40h48v40l22.12 30.97A95.934 95.934 0 0 1 448 238.76ZM368 312l-8 16 8 16v16l-8 16 8 16v16l-8 16 8 16v32a16.463 16.463 0 0 1-11.44 16H344a24.006 24.006 0 0 1-24-24V352a49.186 49.186 0 0 1 2.53-15.59l2.94-8.82a49.3 49.3 0 0 0 0-31.18l-2.94-8.82A49.186 49.186 0 0 1 320 272v-33.24a95.917 95.917 0 0 1 2.74-22.76H336v32l23.16 11.58a16 16 0 0 1 8.84 14.31Z" style="" fill="#3086cd" data-original="#3086cd"></path><path d="M272 192v242a54 54 0 0 1-86.4 43.2 29.34 29.34 0 0 0-35.2 0 54.006 54.006 0 0 1-85.94-36.11A55.305 55.305 0 0 1 64 434V192a104 104 0 0 1 72-98.93V24h64v69.07A103.9 103.9 0 0 1 272 192Z" style="" fill="#4db7e5" data-original="#4db7e5"></path><path d="M272 192v242a54 54 0 0 1-86.4 43.2 29.34 29.34 0 0 0-35.2 0 54.006 54.006 0 0 1-85.94-36.11c68.5-47.19 141.6-134.74 196.85-295.04A103.456 103.456 0 0 1 272 192Z" style="" fill="#48add9" data-original="#48add9"></path><path d="M64 208h208v176H64z" style="" fill="#f35244" data-original="#f35244"></path><path d="M136 72h64v24h-64z" style="" fill="#48add9" data-original="#48add9"></path><path d="M272 208v176H129.37c38.06-41.59 75.39-98.46 108.25-176Z" style="" fill="#ea4a3b" data-original="#ea4a3b"></path><path d="m344 328 8 16v16l-8 16 8 16v16l-8 16 8 16v32a16 16 0 0 1-16 16h-80a16 16 0 0 1-16-16v-32l8-16-8-16v-16l8-16-8-16v-16l8-16-8-16v-38.11a16 16 0 0 1 8.84-14.31L272 248v-32h48v32l23.16 11.58a16 16 0 0 1 8.84 14.31V312Z" style="" fill="#60d1e0" data-original="#60d1e0"></path><path d="m352 312-8 16 8 16v16l-8 16 8 16v16l-8 16 8 16v32a16 16 0 0 1-16 16h-32a16 16 0 0 0 16-16v-32l-8-16 8-16v-16l-8-16 8-16v-16l-8-16 8-16v-38.11a16 16 0 0 0-8.84-14.31L288 248v-32h32v32l23.16 11.58a16 16 0 0 1 8.84 14.31Z" style="" fill="#5ac6d4" data-original="#5ac6d4"></path><ellipse cx="296" cy="216" rx="24" ry="16" style="" fill="#3fb7c7" data-original="#3fb7c7"></ellipse><path d="M436.59 178.316 416 149.441V112a8 8 0 0 0-8-8h-48a8 8 0 0 0-8 8v37.441l-20.582 28.864a104.056 104.056 0 0 0-6.218 9.795l13.969 7.8a88.008 88.008 0 0 1 5.266-8.3l22.078-30.96A8 8 0 0 0 368 152v-32h32v32a8 8 0 0 0 1.488 4.645l22.1 30.992A86.423 86.423 0 0 1 434.4 208H376v16h62.6a89.347 89.347 0 0 1 1.4 14.8v1.2h-64v16h64v16h-64v16h60.893l-1.924 5.871a56.835 56.835 0 0 0-.012 36.223l2.895 8.832A41.339 41.339 0 0 1 440 352h-64v16h64v16h-64v16h64v16h-64v16h64v32a16.016 16.016 0 0 1-16 16h-17.359a8.022 8.022 0 0 1-5.7-2.375 24.4 24.4 0 0 0-33.876 0l11.313 11.313a8.02 8.02 0 0 1 11.25 0A23.917 23.917 0 0 0 406.641 496H424a32.036 32.036 0 0 0 32-32V352a57.251 57.251 0 0 0-2.957-18.094l-2.895-8.832a40.861 40.861 0 0 1 .012-26.183l2.9-8.844a71.885 71.885 0 0 0 2.211-8.844A61.563 61.563 0 0 0 456 272v-33.2a106.361 106.361 0 0 0-2.945-24.692 102.367 102.367 0 0 0-16.465-35.792ZM56 192v242a62.069 62.069 0 0 0 62 62 61.448 61.448 0 0 0 37.215-12.41 21.327 21.327 0 0 1 25.578 0 61.636 61.636 0 0 0 34.91 12.367l.594-15.992a45.625 45.625 0 0 1-25.879-9.16 37.4 37.4 0 0 0-44.828 0A45.545 45.545 0 0 1 118 480a46.054 46.054 0 0 1-46-46v-42h144v-16H72V216h176v-16H72v-8a95.776 95.776 0 0 1 66.465-91.352A7.993 7.993 0 0 0 144 93.039V72h48v21.039a7.993 7.993 0 0 0 5.535 7.609 95.631 95.631 0 0 1 66.184 83.961l15.953-1.218A111.517 111.517 0 0 0 208 87.379V72h16V56h-16V24a8 8 0 0 0-8-8h-64a8 8 0 0 0-8 8v32h-16v16h16v15.379A111.7 111.7 0 0 0 56 192Zm88-160h48v24h-48Z" fill="#000000" opacity="1" data-original="#000000" class=""></path><path d="m123.57 125.461 8.86 13.32a64.537 64.537 0 0 1 15.871-7.648l-4.922-15.227a80.5 80.5 0 0 0-19.809 9.555ZM104.391 184.879a64.1 64.1 0 0 1 17.386-37.188L110.238 136.6a80.24 80.24 0 0 0-21.754 46.516ZM88 232h16v16H88zM88 264h16v72H88zM264 280h16v24h-16z" fill="#000000" opacity="1" data-original="#000000" class=""></path><path d="M296 192c-17.945 0-32 10.543-32 24v27.062l-18.7 9.383a23.9 23.9 0 0 0-13.3 21.477V312a8 8 0 0 0 .844 3.578L239.055 328l-6.211 12.422A8 8 0 0 0 232 344v16a8 8 0 0 0 .844 3.578L239.055 376l-6.211 12.422A8 8 0 0 0 232 392v16a8 8 0 0 0 .844 3.578L239.055 424l-6.211 12.422A8 8 0 0 0 232 440v32a24.037 24.037 0 0 0 24 24h80a25.431 25.431 0 0 0 5.438-.613A23.965 23.965 0 0 0 360 472v-32a8 8 0 0 0-.844-3.578L352.945 424l6.211-12.422A8 8 0 0 0 360 408v-16a8 8 0 0 0-.844-3.578L352.945 376l6.211-12.422A8 8 0 0 0 360 360v-16a8 8 0 0 0-.844-3.578L352.945 328l6.211-12.422A8 8 0 0 0 360 312v-38.078a23.884 23.884 0 0 0-13.293-21.469L328 243.062V216c0-13.457-14.055-24-32-24Zm0 16c9.766 0 16 4.738 16 8s-6.234 8-16 8-16-4.738-16-8 6.234-8 16-8Zm43.543 58.758a7.977 7.977 0 0 1 4.457 7.164v36.191L339.055 320H272v16h67.055l4.945 9.887v12.226L339.055 368H272v16h67.055l4.945 9.887v12.226L339.055 416H272v16h67.055l4.945 9.887V472a8.085 8.085 0 0 1-6.062 7.777A9.369 9.369 0 0 1 336 480h-80a8.024 8.024 0 0 1-6.367-3.184A7.866 7.866 0 0 1 248 472v-30.113l7.156-14.309a8.008 8.008 0 0 0 0-7.156L248 406.113v-12.226l7.156-14.309a8.008 8.008 0 0 0 0-7.156L248 358.113v-12.226l7.156-14.309a8.008 8.008 0 0 0 0-7.156L248 310.113v-36.191a7.991 7.991 0 0 1 4.465-7.172l23.121-11.6A7.991 7.991 0 0 0 280 248v-11.236a41.173 41.173 0 0 0 32 0V248a7.991 7.991 0 0 0 4.414 7.148Z" fill="#000000" opacity="1" data-original="#000000" class=""></path></g></g></svg>